<?xml version="1.0" standalone="no"?>
<!DOCTYPE svg PUBLIC "-//W3C//DTD SVG 20010904//EN"
 "http://www.w3.org/TR/2001/REC-SVG-20010904/DTD/svg10.dtd">
<svg version="1.0" xmlns="http://www.w3.org/2000/svg"
 width="10rem" height="10rem" viewBox="0 0 500.000000 500.000000"
 preserveAspectRatio="xMidYMid meet">

<g transform="translate(0.000000,500.000000) scale(0.100000,-0.100000)"
fill="#000000" stroke="none">
<path d="M2365 4052 c-41 -26 -56 -45 -65 -87 -18 -81 34 -153 116 -163 62 -7
105 17 135 72 28 54 20 104 -25 153 -27 30 -41 36 -82 40 -36 3 -57 -1 -79
-15z m155 -37 c21 -21 25 -35 25 -79 0 -64 -26 -99 -85 -117 -69 -21 -150 40
-150 114 0 56 49 117 95 117 16 0 14 -4 -11 -19 -44 -27 -64 -59 -63 -101 1
-35 1 -35 18 15 14 39 26 54 54 70 21 11 35 25 33 32 -8 20 56 -4 84 -32z"/>
<path d="M2360 3716 c-240 -50 -452 -231 -547 -468 -14 -34 -38 -74 -54 -89
-33 -31 -37 -66 -11 -100 13 -18 18 -45 20 -110 1 -48 11 -121 22 -164 20 -79
20 -99 -2 -77 -21 21 -31 13 -14 -13 16 -24 15 -25 -16 -33 l-33 -9 32 -7 c32
-7 32 -8 17 -32 -17 -24 -7 -33 13 -13 15 15 33 3 34 -24 1 -20 2 -19 12 6 6
15 14 27 18 27 5 0 24 -25 44 -55 56 -83 181 -196 272 -243 112 -58 213 -82
345 -82 211 0 371 60 517 195 41 38 47 40 107 40 60 0 66 2 101 38 35 34 38
42 38 91 0 41 -6 62 -23 86 l-23 31 22 87 c28 113 23 298 -11 407 -42 134
-134 268 -245 358 -62 49 -224 137 -254 137 -9 0 -22 5 -28 11 -18 18 -275 21
-353 5z m252 -2 c21 -4 35 -10 32 -15 -3 -5 0 -9 6 -9 6 0 8 -4 5 -10 -3 -5
-3 -11 2 -11 40 -7 53 -5 53 7 0 20 21 17 92 -13 95 -40 165 -89 248 -173 88
-88 141 -174 175 -283 33 -103 33 -127 0 -127 -25 0 -35 23 -15 35 6 3 10 11
10 17 0 6 -11 3 -24 -6 -24 -15 -25 -14 -34 12 l-10 27 -7 -27 c-7 -26 -8 -27
-31 -11 -14 8 -24 11 -24 5 0 -6 5 -14 10 -17 20 -12 10 -35 -16 -35 -14 0
-23 -4 -19 -10 3 -5 15 -10 27 -10 12 0 18 -5 15 -12 -22 -55 -22 -55 1 -34
25 21 27 21 41 -14 5 -14 10 -18 11 -10 0 8 4 22 10 30 7 12 12 11 31 -5 24
-21 24 -21 3 30 -4 9 0 15 9 15 9 0 23 3 33 7 16 6 17 -3 12 -108 -3 -63 -13
-142 -23 -175 l-17 -62 -64 6 c-64 5 -64 5 -104 -35 -36 -37 -40 -46 -40 -90
0 -38 7 -60 26 -89 l27 -39 -62 -56 c-78 -72 -218 -143 -323 -164 -144 -28
-321 -14 -440 36 -140 59 -297 197 -351 308 -18 36 -12 49 23 52 8 0 3 5 -12
11 -29 10 -35 22 -18 33 19 12 11 26 -9 15 -27 -14 -28 -13 -35 15 -4 14 -10
23 -15 21 -14 -9 -33 83 -39 187 l-5 97 29 0 c38 0 74 36 74 74 0 31 -33 76
-57 76 -23 0 -14 36 34 131 39 78 62 109 137 184 100 99 168 144 274 181 111
38 248 53 344 38z m-754 -581 c14 -22 14 -28 1 -51 -18 -32 -50 -44 -80 -28
-34 17 -35 85 -1 102 31 15 60 7 80 -23z m1324 -47 c8 -12 0 -33 -17 -40 -18
-7 -46 20 -39 38 6 15 45 16 56 2z m11 -380 c45 -18 67 -56 67 -112 0 -39 -5
-51 -34 -80 -29 -29 -41 -34 -83 -34 -55 0 -86 17 -108 60 -30 58 -10 125 48
160 38 23 66 25 110 6z m-1339 -41 c7 -19 -20 -46 -39 -39 -21 8 -26 32 -9 48
16 17 40 12 48 -9z"/>
<path d="M2220 3559 c0 -6 -7 -8 -16 -5 -10 4 -14 1 -11 -6 2 -7 -3 -18 -12
-25 -14 -11 -14 -12 1 -13 12 0 15 -5 11 -17 -5 -12 -2 -15 10 -10 11 4 17 1
17 -8 0 -8 5 -15 10 -15 6 0 10 7 10 16 0 14 2 15 16 3 15 -12 16 -11 10 9 -6
17 -3 22 11 22 16 1 16 2 2 13 -9 7 -14 18 -11 26 3 10 0 12 -12 8 -9 -4 -16
-2 -16 3 0 6 -4 10 -10 10 -5 0 -10 -5 -10 -11z m20 -39 c0 -5 -4 -10 -10 -10
-5 0 -10 5 -10 10 0 6 5 10 10 10 6 0 10 -4 10 -10z"/>
<path d="M2379 3402 c-69 -23 -130 -64 -192 -131 -154 -164 -147 -442 15 -601
101 -99 193 -134 336 -128 54 3 104 8 113 12 12 5 18 0 22 -23 10 -49 71 -53
83 -4 4 15 0 30 -10 42 -16 18 -15 20 17 40 41 25 114 102 144 151 64 106 71
284 16 403 -44 93 -118 169 -211 215 -70 34 -83 37 -176 39 -77 2 -114 -1
-157 -15z m244 -7 c85 -22 134 -51 199 -116 166 -166 169 -423 7 -594 -224
-237 -613 -149 -720 163 -38 110 -20 255 45 357 104 161 291 237 469 190z
m115 -858 c3 -23 0 -27 -21 -27 -29 0 -43 26 -26 47 18 21 44 11 47 -20z"/>
<path d="M2510 3275 c0 -37 4 -65 10 -65 6 0 10 28 10 65 0 37 -4 65 -10 65
-6 0 -10 -28 -10 -65z"/>
<path d="M2391 3275 c0 -11 6 -31 14 -45 18 -32 19 -5 0 35 -10 23 -13 25 -14
10z"/>
<path d="M2625 3255 c-9 -20 -14 -39 -11 -42 3 -3 12 12 21 32 8 21 13 40 10
43 -2 3 -12 -12 -20 -33z"/>
<path d="M2260 3234 c0 -13 88 -99 95 -93 2 3 -18 27 -45 54 -28 27 -50 45
-50 39z"/>
<path d="M2722 3196 c-26 -25 -43 -48 -39 -52 8 -8 72 49 88 79 16 28 1 20
-49 -27z"/>
<path d="M2435 3161 c-79 -36 -121 -112 -113 -207 14 -166 242 -235 350 -106
137 163 -44 401 -237 313z m180 -25 c85 -46 115 -174 60 -257 -67 -102 -201
-116 -286 -30 -63 63 -74 161 -26 232 59 86 155 107 252 55z"/>
<path d="M2439 3127 c-49 -26 -93 -92 -86 -129 4 -25 11 -14 21 33 7 34 64 89
99 96 15 3 27 9 27 14 0 14 -13 11 -61 -14z"/>
<path d="M2210 3102 c0 -10 70 -36 77 -29 3 3 -12 13 -32 21 -43 18 -45 19
-45 8z"/>
<path d="M2778 3098 c-16 -5 -28 -14 -28 -19 0 -8 66 14 79 26 7 8 -22 4 -51
-7z"/>
<path d="M2160 2980 c0 -6 28 -10 65 -10 37 0 65 4 65 10 0 6 -28 10 -65 10
-37 0 -65 -4 -65 -10z"/>
<path d="M2750 2980 c0 -6 28 -10 65 -10 37 0 65 4 65 10 0 6 -28 10 -65 10
-37 0 -65 -4 -65 -10z"/>
<path d="M2750 2884 c0 -8 71 -36 78 -30 3 3 -11 13 -31 21 -40 16 -47 18 -47
9z"/>
<path d="M2238 2868 c-16 -5 -28 -14 -28 -18 0 -8 67 15 79 26 8 7 -24 3 -51
-8z"/>
<path d="M2300 2775 c-24 -24 -41 -47 -38 -51 7 -7 98 74 98 87 0 18 -17 8
-60 -36z"/>
<path d="M2680 2814 c0 -13 88 -99 95 -93 2 3 -18 27 -45 54 -28 27 -50 45
-50 39z"/>
<path d="M2510 2685 c0 -37 4 -65 10 -65 6 0 10 28 10 65 0 37 -4 65 -10 65
-6 0 -10 -28 -10 -65z"/>
<path d="M2401 2709 c-13 -39 -14 -42 -2 -35 13 8 32 66 21 66 -4 0 -13 -14
-19 -31z"/>
<path d="M2621 2730 c0 -8 6 -26 14 -40 8 -14 14 -19 14 -10 0 8 -6 26 -14 40
-8 14 -14 19 -14 10z"/>
<path d="M2858 3413 c-10 -3 -21 -16 -25 -30 -4 -20 -1 -31 17 -45 20 -16 25
-17 44 -5 41 28 12 91 -36 80z m40 -41 c4 -28 -24 -40 -45 -19 -14 13 -14 19
-3 32 18 22 44 15 48 -13z"/>
<path d="M3007 2780 c-5 -21 3 -41 14 -34 5 3 9 1 9 -5 0 -14 27 -3 34 15 9
24 -5 44 -29 42 -13 -1 -26 -9 -28 -18z"/>
<path d="M2350 2485 c0 -9 -6 -12 -17 -8 -12 5 -15 2 -10 -10 4 -12 1 -17 -11
-17 -15 -1 -15 -2 -1 -13 9 -7 14 -18 11 -26 -3 -8 1 -12 9 -9 8 3 19 -2 26
-11 11 -14 12 -14 13 1 0 12 5 15 17 11 12 -5 15 -2 10 10 -4 11 -1 17 8 17 8
0 15 5 15 10 0 6 -7 10 -15 10 -9 0 -12 6 -8 17 5 12 2 15 -10 10 -11 -4 -17
-1 -17 8 0 8 -4 15 -10 15 -5 0 -10 -7 -10 -15z m20 -45 c0 -5 -4 -10 -10 -10
-5 0 -10 5 -10 10 0 6 5 10 10 10 6 0 10 -4 10 -10z"/>
<path d="M3103 2690 c-42 -25 -82 -100 -53 -100 6 0 10 9 10 21 0 24 51 79 74
79 9 0 16 5 16 10 0 15 -11 12 -47 -10z"/>
<path d="M2450 2138 l-45 -41 54 30 c54 29 76 53 49 53 -7 -1 -33 -19 -58 -42z"/>
<path d="M1085 2071 c25 -11 48 -37 67 -75 15 -29 16 -30 23 -7 9 29 -35 77
-80 86 -23 4 -25 3 -10 -4z"/>
<path d="M1330 2067 c0 -8 23 -82 51 -164 28 -81 54 -163 56 -180 4 -28 9 -33
34 -33 l28 0 -16 38 c-9 20 -39 107 -68 192 -36 109 -57 156 -68 158 -10 2
-17 -3 -17 -11z"/>
<path d="M1716 2070 c41 -9 86 -42 104 -74 16 -31 26 -33 33 -6 9 36 -83 92
-148 89 -12 -1 -7 -4 11 -9z"/>
<path d="M1915 1885 l0 -195 25 0 25 0 0 195 0 195 -25 0 -25 0 0 -195z"/>
<path d="M1990 2060 c0 -18 3 -19 22 -9 12 6 33 15 47 20 21 6 17 7 -21 8 -42
1 -48 -2 -48 -19z"/>
<path d="M2118 1885 l-3 -195 25 0 25 0 -3 195 c-3 185 -4 195 -22 195 -18 0
-19 -10 -22 -195z"/>
<path d="M2233 2066 c20 -8 44 -20 53 -27 14 -11 15 -10 12 11 -3 22 -8 25
-53 27 l-50 3 38 -14z"/>
<path d="M2440 2076 c0 -2 27 -81 60 -177 33 -95 60 -181 60 -191 0 -13 8 -18
30 -18 30 0 30 0 17 28 -8 15 -40 102 -72 195 -47 136 -61 167 -76 167 -11 0
-19 -2 -19 -4z"/>
<path d="M2649 1915 c2 -99 -1 -177 -7 -195 -10 -29 -10 -30 16 -30 l27 0 0
195 c0 188 -1 195 -20 195 -19 0 -20 -5 -16 -165z"/>
<path d="M2796 2070 c55 -22 70 -95 29 -135 -18 -18 -20 -25 -9 -25 20 0 74
54 74 74 0 35 -22 68 -55 81 -19 8 -40 15 -47 14 -7 0 -3 -4 8 -9z"/>
<path d="M2935 1885 l0 -195 25 0 25 0 0 195 0 195 -25 0 -25 0 0 -195z"/>
<path d="M3223 2065 c129 -45 177 -222 89 -327 l-27 -32 33 24 c63 47 91 156
58 233 -17 43 -76 93 -123 106 -54 15 -75 13 -30 -4z"/>
<path d="M3515 1885 l0 -195 25 0 25 0 -3 195 c-3 194 -3 195 -25 195 -22 0
-22 -1 -22 -195z"/>
<path d="M3676 2067 c54 -25 64 -99 20 -136 -9 -8 -30 -16 -46 -20 l-30 -6 55
-95 c30 -52 55 -101 55 -107 0 -8 13 -13 31 -13 24 0 29 3 21 13 -17 21 -112
188 -112 198 0 5 9 9 20 9 12 0 32 11 46 25 50 50 18 124 -61 140 l-30 6 31
-14z"/>
<path d="M3815 1885 l0 -195 27 0 c25 0 26 2 17 29 -6 17 -9 99 -7 195 3 161
3 166 -17 166 -19 0 -20 -6 -20 -195z"/>
<path d="M4035 1885 l0 -195 25 0 25 0 -3 195 c-3 194 -3 195 -25 195 -22 0
-22 -1 -22 -195z"/>
<path d="M965 2038 c-22 -26 -26 -39 -21 -66 7 -47 25 -64 113 -107 58 -29 78
-45 91 -72 15 -32 15 -37 -1 -66 l-18 -32 23 23 c29 28 32 100 6 129 -10 11
-52 36 -94 57 -58 30 -79 46 -92 72 -15 33 -15 35 6 64 30 40 21 38 -13 -2z"/>
<path d="M1567 2011 c-40 -44 -52 -89 -44 -157 10 -95 93 -165 193 -163 l49 1
-42 8 c-23 5 -52 14 -65 21 -102 52 -137 194 -73 291 32 49 26 48 -18 -1z"/>
<path d="M3063 2018 c-40 -42 -53 -76 -53 -142 0 -96 69 -171 168 -182 l37 -4
-33 9 c-19 5 -52 26 -73 47 -73 72 -88 189 -34 268 30 44 28 45 -12 4z"/>
<path d="M2750 1902 c0 -4 19 -39 41 -77 23 -39 48 -85 55 -102 11 -25 20 -33
40 -33 14 0 24 3 22 8 -1 4 -30 53 -63 109 -40 68 -66 103 -77 103 -10 0 -18
-3 -18 -8z"/>
<path d="M1835 1846 c24 -36 5 -100 -38 -126 -18 -11 -26 -20 -20 -20 28 0 91
70 102 115 6 24 11 46 11 49 0 3 -16 6 -35 6 -35 0 -35 0 -20 -24z"/>
<path d="M918 1797 c-4 -20 1 -34 21 -53 21 -22 78 -54 94 -54 2 0 -17 21 -42
48 -25 26 -51 56 -57 67 -10 18 -11 18 -16 -8z"/>
<path d="M1212 1715 c-10 -21 -9 -25 3 -25 9 0 15 10 15 25 0 14 -2 25 -3 25
-2 0 -9 -11 -15 -25z"/>
<path d="M2327 1715 c-17 -24 -17 -25 0 -25 12 0 18 8 19 25 2 30 3 30 -19 0z"/>
</g>
</svg>
