<?xml version="1.0" encoding="utf-8"?>
<svg viewBox="-0.713 -4.28 378.745 276.747" xmlns="http://www.w3.org/2000/svg">
  <g transform="matrix(0.115422, 0, 0, -0.110133, -220.566986, 436.930969)" fill="#000000" stroke="none" style="">
    <path d="M 3412.704 3942.198 C 3371.704 3916.198 3356.704 3897.198 3347.704 3855.198 C 3329.704 3774.198 3381.704 3702.198 3463.704 3692.198 C 3525.704 3685.198 3568.704 3709.198 3598.704 3764.198 C 3626.704 3818.198 3618.704 3868.198 3573.704 3917.198 C 3546.704 3947.198 3532.704 3953.198 3491.704 3957.198 C 3455.704 3960.198 3434.704 3956.198 3412.704 3942.198 Z M 3567.704 3905.198 C 3588.704 3884.198 3592.704 3870.198 3592.704 3826.198 C 3592.704 3762.198 3566.704 3727.198 3507.704 3709.198 C 3438.704 3688.198 3357.704 3749.198 3357.704 3823.198 C 3357.704 3879.198 3406.704 3940.198 3452.704 3940.198 C 3468.704 3940.198 3466.704 3936.198 3441.704 3921.198 C 3397.704 3894.198 3377.704 3862.198 3378.704 3820.198 C 3379.704 3785.198 3379.704 3785.198 3396.704 3835.198 C 3410.704 3874.198 3422.704 3889.198 3450.704 3905.198 C 3471.704 3916.198 3485.704 3930.198 3483.704 3937.198 C 3475.704 3957.198 3539.704 3933.198 3567.704 3905.198 Z" style=""/>
    <path d="M 3407.704 3606.198 C 3167.704 3556.198 2955.704 3375.198 2860.704 3138.198 C 2846.704 3104.198 2822.704 3064.198 2806.704 3049.198 C 2773.704 3018.198 2769.704 2983.198 2795.704 2949.198 C 2808.704 2931.198 2813.704 2904.198 2815.704 2839.198 C 2816.704 2791.198 2826.704 2718.198 2837.704 2675.198 C 2857.704 2596.198 2857.704 2576.198 2835.704 2598.198 C 2814.704 2619.198 2804.704 2611.198 2821.704 2585.198 C 2837.704 2561.198 2836.704 2560.198 2805.704 2552.198 L 2772.704 2543.198 L 2804.704 2536.198 C 2836.704 2529.198 2836.704 2528.198 2821.704 2504.198 C 2804.704 2480.198 2814.704 2471.198 2834.704 2491.198 C 2849.704 2506.198 2867.704 2494.198 2868.704 2467.198 C 2869.704 2447.198 2870.704 2448.198 2880.704 2473.198 C 2886.704 2488.198 2894.704 2500.198 2898.704 2500.198 C 2903.704 2500.198 2922.704 2475.198 2942.704 2445.198 C 2998.704 2362.198 3123.704 2249.198 3214.704 2202.198 C 3326.704 2144.198 3427.704 2120.198 3559.704 2120.198 C 3770.704 2120.198 3930.704 2180.198 4076.704 2315.198 C 4117.704 2353.198 4123.704 2355.198 4183.704 2355.198 C 4243.704 2355.198 4249.704 2357.198 4284.704 2393.198 C 4319.704 2427.198 4322.704 2435.198 4322.704 2484.198 C 4322.704 2525.198 4316.704 2546.198 4299.704 2570.198 L 4276.704 2601.198 L 4298.704 2688.198 C 4326.704 2801.198 4321.704 2986.198 4287.704 3095.198 C 4245.704 3229.198 4153.704 3363.198 4042.704 3453.198 C 3980.704 3502.198 3818.704 3590.198 3788.704 3590.198 C 3779.704 3590.198 3766.704 3595.198 3760.704 3601.198 C 3742.704 3619.198 3485.704 3622.198 3407.704 3606.198 Z M 3659.704 3604.198 C 3680.704 3600.198 3694.704 3594.198 3691.704 3589.198 C 3688.704 3584.198 3691.704 3580.198 3697.704 3580.198 C 3703.704 3580.198 3705.704 3576.198 3702.704 3570.198 C 3699.704 3565.198 3699.704 3559.198 3704.704 3559.198 C 3744.704 3552.198 3757.704 3554.198 3757.704 3566.198 C 3757.704 3586.198 3778.704 3583.198 3849.704 3553.198 C 3944.704 3513.198 4014.704 3464.198 4097.704 3380.198 C 4185.704 3292.198 4238.704 3206.198 4272.704 3097.198 C 4305.704 2994.198 4305.704 2970.198 4272.704 2970.198 C 4247.704 2970.198 4237.704 2993.198 4257.704 3005.198 C 4263.704 3008.198 4267.704 3016.198 4267.704 3022.198 C 4267.704 3028.198 4256.704 3025.198 4243.704 3016.198 C 4219.704 3001.198 4218.704 3002.198 4209.704 3028.198 L 4199.704 3055.198 L 4192.704 3028.198 C 4185.704 3002.198 4184.704 3001.198 4161.704 3017.198 C 4147.704 3025.198 4137.704 3028.198 4137.704 3022.198 C 4137.704 3016.198 4142.704 3008.198 4147.704 3005.198 C 4167.704 2993.198 4157.704 2970.198 4131.704 2970.198 C 4117.704 2970.198 4108.704 2966.198 4112.704 2960.198 C 4115.704 2955.198 4127.704 2950.198 4139.704 2950.198 C 4151.704 2950.198 4157.704 2945.198 4154.704 2938.198 C 4132.704 2883.198 4132.704 2883.198 4155.704 2904.198 C 4180.704 2925.198 4182.704 2925.198 4196.704 2890.198 C 4201.704 2876.198 4206.704 2872.198 4207.704 2880.198 C 4207.704 2888.198 4211.704 2902.198 4217.704 2910.198 C 4224.704 2922.198 4229.704 2921.198 4248.704 2905.198 C 4272.704 2884.198 4272.704 2884.198 4251.704 2935.198 C 4247.704 2944.198 4251.704 2950.198 4260.704 2950.198 C 4269.704 2950.198 4283.704 2953.198 4293.704 2957.198 C 4309.704 2963.198 4310.704 2954.198 4305.704 2849.198 C 4302.704 2786.198 4292.704 2707.198 4282.704 2674.198 L 4265.704 2612.198 L 4201.704 2618.198 C 4137.704 2623.198 4137.704 2623.198 4097.704 2583.198 C 4061.704 2546.198 4057.704 2537.198 4057.704 2493.198 C 4057.704 2455.198 4064.704 2433.198 4083.704 2404.198 L 4110.704 2365.198 L 4048.704 2309.198 C 3970.704 2237.198 3830.704 2166.198 3725.704 2145.198 C 3581.704 2117.198 3404.704 2131.198 3285.704 2181.198 C 3145.704 2240.198 2988.704 2378.198 2934.704 2489.198 C 2916.704 2525.198 2922.704 2538.198 2957.704 2541.198 C 2965.704 2541.198 2960.704 2546.198 2945.704 2552.198 C 2916.704 2562.198 2910.704 2574.198 2927.704 2585.198 C 2946.704 2597.198 2938.704 2611.198 2918.704 2600.198 C 2891.704 2586.198 2890.704 2587.198 2883.704 2615.198 C 2879.704 2629.198 2873.704 2638.198 2868.704 2636.198 C 2854.704 2627.198 2835.704 2719.198 2829.704 2823.198 L 2824.704 2920.198 L 2853.704 2920.198 C 2891.704 2920.198 2927.704 2956.198 2927.704 2994.198 C 2927.704 3025.198 2894.704 3070.198 2870.704 3070.198 C 2847.704 3070.198 2856.704 3106.198 2904.704 3201.198 C 2943.704 3279.198 2966.704 3310.198 3041.704 3385.198 C 3141.704 3484.198 3209.704 3529.198 3315.704 3566.198 C 3426.704 3604.198 3563.704 3619.198 3659.704 3604.198 Z M 2905.704 3023.198 C 2919.704 3001.198 2919.704 2995.198 2906.704 2972.198 C 2888.704 2940.198 2856.704 2928.198 2826.704 2944.198 C 2792.704 2961.198 2791.704 3029.198 2825.704 3046.198 C 2856.704 3061.198 2885.704 3053.198 2905.704 3023.198 Z M 4229.704 2976.198 C 4237.704 2964.198 4229.704 2943.198 4212.704 2936.198 C 4194.704 2929.198 4166.704 2956.198 4173.704 2974.198 C 4179.704 2989.198 4218.704 2990.198 4229.704 2976.198 Z M 4240.704 2596.198 C 4285.704 2578.198 4307.704 2540.198 4307.704 2484.198 C 4307.704 2445.198 4302.704 2433.198 4273.704 2404.198 C 4244.704 2375.198 4232.704 2370.198 4190.704 2370.198 C 4135.704 2370.198 4104.704 2387.198 4082.704 2430.198 C 4052.704 2488.198 4072.704 2555.198 4130.704 2590.198 C 4168.704 2613.198 4196.704 2615.198 4240.704 2596.198 Z M 2901.704 2555.198 C 2908.704 2536.198 2881.704 2509.198 2862.704 2516.198 C 2841.704 2524.198 2836.704 2548.198 2853.704 2564.198 C 2869.704 2581.198 2893.704 2576.198 2901.704 2555.198 Z" style=""/>
    <path d="M 3267.704 3449.198 C 3267.704 3443.198 3260.704 3441.198 3251.704 3444.198 C 3241.704 3448.198 3237.704 3445.198 3240.704 3438.198 C 3242.704 3431.198 3237.704 3420.198 3228.704 3413.198 C 3214.704 3402.198 3214.704 3401.198 3229.704 3400.198 C 3241.704 3400.198 3244.704 3395.198 3240.704 3383.198 C 3235.704 3371.198 3238.704 3368.198 3250.704 3373.198 C 3261.704 3377.198 3267.704 3374.198 3267.704 3365.198 C 3267.704 3357.198 3272.704 3350.198 3277.704 3350.198 C 3283.704 3350.198 3287.704 3357.198 3287.704 3366.198 C 3287.704 3380.198 3289.704 3381.198 3303.704 3369.198 C 3318.704 3357.198 3319.704 3358.198 3313.704 3378.198 C 3307.704 3395.198 3310.704 3400.198 3324.704 3400.198 C 3340.704 3401.198 3340.704 3402.198 3326.704 3413.198 C 3317.704 3420.198 3312.704 3431.198 3315.704 3439.198 C 3318.704 3449.198 3315.704 3451.198 3303.704 3447.198 C 3294.704 3443.198 3287.704 3445.198 3287.704 3450.198 C 3287.704 3456.198 3283.704 3460.198 3277.704 3460.198 C 3272.704 3460.198 3267.704 3455.198 3267.704 3449.198 Z M 3287.704 3410.198 C 3287.704 3405.198 3283.704 3400.198 3277.704 3400.198 C 3272.704 3400.198 3267.704 3405.198 3267.704 3410.198 C 3267.704 3416.198 3272.704 3420.198 3277.704 3420.198 C 3283.704 3420.198 3287.704 3416.198 3287.704 3410.198 Z" style=""/>
    <path d="M 3426.704 3292.198 C 3357.704 3269.198 3296.704 3228.198 3234.704 3161.198 C 3080.704 2997.198 3087.704 2719.198 3249.704 2560.198 C 3350.704 2461.198 3442.704 2426.198 3585.704 2432.198 C 3639.704 2435.198 3689.704 2440.198 3698.704 2444.198 C 3710.704 2449.198 3716.704 2444.198 3720.704 2421.198 C 3730.704 2372.198 3791.704 2368.198 3803.704 2417.198 C 3807.704 2432.198 3803.704 2447.198 3793.704 2459.198 C 3777.704 2477.198 3778.704 2479.198 3810.704 2499.198 C 3851.704 2524.198 3924.704 2601.198 3954.704 2650.198 C 4018.704 2756.198 4025.704 2934.198 3970.704 3053.198 C 3926.704 3146.198 3852.704 3222.198 3759.704 3268.198 C 3689.704 3302.198 3676.704 3305.198 3583.704 3307.198 C 3506.704 3309.198 3469.704 3306.198 3426.704 3292.198 Z M 3670.704 3285.198 C 3755.704 3263.198 3804.704 3234.198 3869.704 3169.198 C 4035.704 3003.198 4038.704 2746.198 3876.704 2575.198 C 3652.704 2338.198 3263.704 2426.198 3156.704 2738.198 C 3118.704 2848.198 3136.704 2993.198 3201.704 3095.198 C 3305.704 3256.198 3492.704 3332.198 3670.704 3285.198 Z M 3785.704 2427.198 C 3788.704 2404.198 3785.704 2400.198 3764.704 2400.198 C 3735.704 2400.198 3721.704 2426.198 3738.704 2447.198 C 3756.704 2468.198 3782.704 2458.198 3785.704 2427.198 Z" style=""/>
    <path d="M 3557.704 3165.198 C 3557.704 3128.198 3561.704 3100.198 3567.704 3100.198 C 3573.704 3100.198 3577.704 3128.198 3577.704 3165.198 C 3577.704 3202.198 3573.704 3230.198 3567.704 3230.198 C 3561.704 3230.198 3557.704 3202.198 3557.704 3165.198 Z" style=""/>
    <path d="M 3438.704 3165.198 C 3438.704 3154.198 3444.704 3134.198 3452.704 3120.198 C 3470.704 3088.198 3471.704 3115.198 3452.704 3155.198 C 3442.704 3178.198 3439.704 3180.198 3438.704 3165.198 Z" style=""/>
    <path d="M 3672.704 3145.198 C 3663.704 3125.198 3658.704 3106.198 3661.704 3103.198 C 3664.704 3100.198 3673.704 3115.198 3682.704 3135.198 C 3690.704 3156.198 3695.704 3175.198 3692.704 3178.198 C 3690.704 3181.198 3680.704 3166.198 3672.704 3145.198 Z" style=""/>
    <path d="M 3307.704 3124.198 C 3307.704 3111.198 3395.704 3025.198 3402.704 3031.198 C 3404.704 3034.198 3384.704 3058.198 3357.704 3085.198 C 3329.704 3112.198 3307.704 3130.198 3307.704 3124.198 Z" style=""/>
    <path d="M 3769.704 3086.198 C 3743.704 3061.198 3726.704 3038.198 3730.704 3034.198 C 3738.704 3026.198 3802.704 3083.198 3818.704 3113.198 C 3834.704 3141.198 3819.704 3133.198 3769.704 3086.198 Z" style=""/>
    <path d="M 3482.704 3051.198 C 3403.704 3015.198 3361.704 2939.198 3369.704 2844.198 C 3383.704 2678.198 3611.704 2609.198 3719.704 2738.198 C 3856.704 2901.198 3675.704 3139.198 3482.704 3051.198 Z M 3662.704 3026.198 C 3747.704 2980.198 3777.704 2852.198 3722.704 2769.198 C 3655.704 2667.198 3521.704 2653.198 3436.704 2739.198 C 3373.704 2802.198 3362.704 2900.198 3410.704 2971.198 C 3469.704 3057.198 3565.704 3078.198 3662.704 3026.198 Z" style=""/>
    <path d="M 3486.704 3017.198 C 3437.704 2991.198 3393.704 2925.198 3400.704 2888.198 C 3404.704 2863.198 3411.704 2874.198 3421.704 2921.198 C 3428.704 2955.198 3485.704 3010.198 3520.704 3017.198 C 3535.704 3020.198 3547.704 3026.198 3547.704 3031.198 C 3547.704 3045.198 3534.704 3042.198 3486.704 3017.198 Z" style=""/>
    <path d="M 3257.704 2992.198 C 3257.704 2982.198 3327.704 2956.198 3334.704 2963.198 C 3337.704 2966.198 3322.704 2976.198 3302.704 2984.198 C 3259.704 3002.198 3257.704 3003.198 3257.704 2992.198 Z" style=""/>
    <path d="M 3825.704 2988.198 C 3809.704 2983.198 3797.704 2974.198 3797.704 2969.198 C 3797.704 2961.198 3863.704 2983.198 3876.704 2995.198 C 3883.704 3003.198 3854.704 2999.198 3825.704 2988.198 Z" style=""/>
    <path d="M 3207.704 2870.198 C 3207.704 2864.198 3235.704 2860.198 3272.704 2860.198 C 3309.704 2860.198 3337.704 2864.198 3337.704 2870.198 C 3337.704 2876.198 3309.704 2880.198 3272.704 2880.198 C 3235.704 2880.198 3207.704 2876.198 3207.704 2870.198 Z" style=""/>
    <path d="M 3797.704 2870.198 C 3797.704 2864.198 3825.704 2860.198 3862.704 2860.198 C 3899.704 2860.198 3927.704 2864.198 3927.704 2870.198 C 3927.704 2876.198 3899.704 2880.198 3862.704 2880.198 C 3825.704 2880.198 3797.704 2876.198 3797.704 2870.198 Z" style=""/>
    <path d="M 3797.704 2774.198 C 3797.704 2766.198 3868.704 2738.198 3875.704 2744.198 C 3878.704 2747.198 3864.704 2757.198 3844.704 2765.198 C 3804.704 2781.198 3797.704 2783.198 3797.704 2774.198 Z" style=""/>
    <path d="M 3285.704 2758.198 C 3269.704 2753.198 3257.704 2744.198 3257.704 2740.198 C 3257.704 2732.198 3324.704 2755.198 3336.704 2766.198 C 3344.704 2773.198 3312.704 2769.198 3285.704 2758.198 Z" style=""/>
    <path d="M 3347.704 2665.198 C 3323.704 2641.198 3306.704 2618.198 3309.704 2614.198 C 3316.704 2607.198 3407.704 2688.198 3407.704 2701.198 C 3407.704 2719.198 3390.704 2709.198 3347.704 2665.198 Z" style=""/>
    <path d="M 3727.704 2704.198 C 3727.704 2691.198 3815.704 2605.198 3822.704 2611.198 C 3824.704 2614.198 3804.704 2638.198 3777.704 2665.198 C 3749.704 2692.198 3727.704 2710.198 3727.704 2704.198 Z" style=""/>
    <path d="M 3557.704 2575.198 C 3557.704 2538.198 3561.704 2510.198 3567.704 2510.198 C 3573.704 2510.198 3577.704 2538.198 3577.704 2575.198 C 3577.704 2612.198 3573.704 2640.198 3567.704 2640.198 C 3561.704 2640.198 3557.704 2612.198 3557.704 2575.198 Z" style=""/>
    <path d="M 3448.704 2599.198 C 3435.704 2560.198 3434.704 2557.198 3446.704 2564.198 C 3459.704 2572.198 3478.704 2630.198 3467.704 2630.198 C 3463.704 2630.198 3454.704 2616.198 3448.704 2599.198 Z" style=""/>
    <path d="M 3668.704 2620.198 C 3668.704 2612.198 3674.704 2594.198 3682.704 2580.198 C 3690.704 2566.198 3696.704 2561.198 3696.704 2570.198 C 3696.704 2578.198 3690.704 2596.198 3682.704 2610.198 C 3674.704 2624.198 3668.704 2629.198 3668.704 2620.198 Z" style=""/>
    <path d="M 3905.704 3303.198 C 3895.704 3300.198 3884.704 3287.198 3880.704 3273.198 C 3876.704 3253.198 3879.704 3242.198 3897.704 3228.198 C 3917.704 3212.198 3922.704 3211.198 3941.704 3223.198 C 3982.704 3251.198 3953.704 3314.198 3905.704 3303.198 Z M 3945.704 3262.198 C 3949.704 3234.198 3921.704 3222.198 3900.704 3243.198 C 3886.704 3256.198 3886.704 3262.198 3897.704 3275.198 C 3915.704 3297.198 3941.704 3290.198 3945.704 3262.198 Z" style=""/>
    <path d="M 4054.704 2670.198 C 4049.704 2649.198 4057.704 2629.198 4068.704 2636.198 C 4073.704 2639.198 4077.704 2637.198 4077.704 2631.198 C 4077.704 2617.198 4104.704 2628.198 4111.704 2646.198 C 4120.704 2670.198 4106.704 2690.198 4082.704 2688.198 C 4069.704 2687.198 4056.704 2679.198 4054.704 2670.198 Z" style=""/>
    <path d="M 3397.704 2375.198 C 3397.704 2366.198 3391.704 2363.198 3380.704 2367.198 C 3368.704 2372.198 3365.704 2369.198 3370.704 2357.198 C 3374.704 2345.198 3371.704 2340.198 3359.704 2340.198 C 3344.704 2339.198 3344.704 2338.198 3358.704 2327.198 C 3367.704 2320.198 3372.704 2309.198 3369.704 2301.198 C 3366.704 2293.198 3370.704 2289.198 3378.704 2292.198 C 3386.704 2295.198 3397.704 2290.198 3404.704 2281.198 C 3415.704 2267.198 3416.704 2267.198 3417.704 2282.198 C 3417.704 2294.198 3422.704 2297.198 3434.704 2293.198 C 3446.704 2288.198 3449.704 2291.198 3444.704 2303.198 C 3440.704 2314.198 3443.704 2320.198 3452.704 2320.198 C 3460.704 2320.198 3467.704 2325.198 3467.704 2330.198 C 3467.704 2336.198 3460.704 2340.198 3452.704 2340.198 C 3443.704 2340.198 3440.704 2346.198 3444.704 2357.198 C 3449.704 2369.198 3446.704 2372.198 3434.704 2367.198 C 3423.704 2363.198 3417.704 2366.198 3417.704 2375.198 C 3417.704 2383.198 3413.704 2390.198 3407.704 2390.198 C 3402.704 2390.198 3397.704 2383.198 3397.704 2375.198 Z M 3417.704 2330.198 C 3417.704 2325.198 3413.704 2320.198 3407.704 2320.198 C 3402.704 2320.198 3397.704 2325.198 3397.704 2330.198 C 3397.704 2336.198 3402.704 2340.198 3407.704 2340.198 C 3413.704 2340.198 3417.704 2336.198 3417.704 2330.198 Z" style=""/>
    <path d="M 4150.704 2580.198 C 4108.704 2555.198 4068.704 2480.198 4097.704 2480.198 C 4103.704 2480.198 4107.704 2489.198 4107.704 2501.198 C 4107.704 2525.198 4158.704 2580.198 4181.704 2580.198 C 4190.704 2580.198 4197.704 2585.198 4197.704 2590.198 C 4197.704 2605.198 4186.704 2602.198 4150.704 2580.198 Z" style=""/>
    <path d="M 3497.704 2028.198 L 3452.704 1987.198 L 3506.704 2017.198 C 3560.704 2046.198 3582.704 2070.198 3555.704 2070.198 C 3548.704 2069.198 3522.704 2051.198 3497.704 2028.198 Z" style=""/>
    <path d="M 2132.704 1961.198 C 2157.704 1950.198 2180.704 1924.198 2199.704 1886.198 C 2214.704 1857.198 2215.704 1856.198 2222.704 1879.198 C 2231.704 1908.198 2187.704 1956.198 2142.704 1965.198 C 2119.704 1969.198 2117.704 1968.198 2132.704 1961.198 Z" style=""/>
    <path d="M 2377.704 1957.198 C 2377.704 1949.198 2400.704 1875.198 2428.704 1793.198 C 2456.704 1712.198 2482.704 1630.198 2484.704 1613.198 C 2488.704 1585.198 2493.704 1580.198 2518.704 1580.198 L 2546.704 1580.198 L 2530.704 1618.198 C 2521.704 1638.198 2491.704 1725.198 2462.704 1810.198 C 2426.704 1919.198 2405.704 1966.198 2394.704 1968.198 C 2384.704 1970.198 2377.704 1965.198 2377.704 1957.198 Z" style=""/>
    <path d="M 2763.704 1960.198 C 2804.704 1951.198 2849.704 1918.198 2867.704 1886.198 C 2883.704 1855.198 2893.704 1853.198 2900.704 1880.198 C 2909.704 1916.198 2817.704 1972.198 2752.704 1969.198 C 2740.704 1968.198 2745.704 1965.198 2763.704 1960.198 Z" style=""/>
    <path d="M 2962.704 1775.198 L 2962.704 1580.198 L 2987.704 1580.198 L 3012.704 1580.198 L 3012.704 1775.198 L 3012.704 1970.198 L 2987.704 1970.198 L 2962.704 1970.198 L 2962.704 1775.198 Z" style=""/>
    <path d="M 3037.704 1950.198 C 3037.704 1932.198 3040.704 1931.198 3059.704 1941.198 C 3071.704 1947.198 3092.704 1956.198 3106.704 1961.198 C 3127.704 1967.198 3123.704 1968.198 3085.704 1969.198 C 3043.704 1970.198 3037.704 1967.198 3037.704 1950.198 Z" style=""/>
    <path d="M 3165.704 1775.198 L 3162.704 1580.198 L 3187.704 1580.198 L 3212.704 1580.198 L 3209.704 1775.198 C 3206.704 1960.198 3205.704 1970.198 3187.704 1970.198 C 3169.704 1970.198 3168.704 1960.198 3165.704 1775.198 Z" style=""/>
    <path d="M 3280.704 1956.198 C 3300.704 1948.198 3324.704 1936.198 3333.704 1929.198 C 3347.704 1918.198 3348.704 1919.198 3345.704 1940.198 C 3342.704 1962.198 3337.704 1965.198 3292.704 1967.198 L 3242.704 1970.198 L 3280.704 1956.198 Z" style=""/>
    <path d="M 3487.704 1966.198 C 3487.704 1964.198 3514.704 1885.198 3547.704 1789.198 C 3580.704 1694.198 3607.704 1608.198 3607.704 1598.198 C 3607.704 1585.198 3615.704 1580.198 3637.704 1580.198 C 3667.704 1580.198 3667.704 1580.198 3654.704 1608.198 C 3646.704 1623.198 3614.704 1710.198 3582.704 1803.198 C 3535.704 1939.198 3521.704 1970.198 3506.704 1970.198 C 3495.704 1970.198 3487.704 1968.198 3487.704 1966.198 Z" style=""/>
    <path d="M 3696.704 1805.198 C 3698.704 1706.198 3695.704 1628.198 3689.704 1610.198 C 3679.704 1581.198 3679.704 1580.198 3705.704 1580.198 L 3732.704 1580.198 L 3732.704 1775.198 C 3732.704 1963.198 3731.704 1970.198 3712.704 1970.198 C 3693.704 1970.198 3692.704 1965.198 3696.704 1805.198 Z" style=""/>
    <path d="M 3843.704 1960.198 C 3898.704 1938.198 3913.704 1865.198 3872.704 1825.198 C 3854.704 1807.198 3852.704 1800.198 3863.704 1800.198 C 3883.704 1800.198 3937.704 1854.198 3937.704 1874.198 C 3937.704 1909.198 3915.704 1942.198 3882.704 1955.198 C 3863.704 1963.198 3842.704 1970.198 3835.704 1969.198 C 3828.704 1969.198 3832.704 1965.198 3843.704 1960.198 Z" style=""/>
    <path d="M 3982.704 1775.198 L 3982.704 1580.198 L 4007.704 1580.198 L 4032.704 1580.198 L 4032.704 1775.198 L 4032.704 1970.198 L 4007.704 1970.198 L 3982.704 1970.198 L 3982.704 1775.198 Z" style=""/>
    <path d="M 4270.704 1955.198 C 4399.704 1910.198 4447.704 1733.198 4359.704 1628.198 L 4332.704 1596.198 L 4365.704 1620.198 C 4428.704 1667.198 4456.704 1776.198 4423.704 1853.198 C 4406.704 1896.198 4347.704 1946.198 4300.704 1959.198 C 4246.704 1974.198 4225.704 1972.198 4270.704 1955.198 Z" style=""/>
    <path d="M 4562.704 1775.198 L 4562.704 1580.198 L 4587.704 1580.198 L 4612.704 1580.198 L 4609.704 1775.198 C 4606.704 1969.198 4606.704 1970.198 4584.704 1970.198 C 4562.704 1970.198 4562.704 1969.198 4562.704 1775.198 Z" style=""/>
    <path d="M 4723.704 1957.198 C 4777.704 1932.198 4787.704 1858.198 4743.704 1821.198 C 4734.704 1813.198 4713.704 1805.198 4697.704 1801.198 L 4667.704 1795.198 L 4722.704 1700.198 C 4752.704 1648.198 4777.704 1599.198 4777.704 1593.198 C 4777.704 1585.198 4790.704 1580.198 4808.704 1580.198 C 4832.704 1580.198 4837.704 1583.198 4829.704 1593.198 C 4812.704 1614.198 4717.704 1781.198 4717.704 1791.198 C 4717.704 1796.198 4726.704 1800.198 4737.704 1800.198 C 4749.704 1800.198 4769.704 1811.198 4783.704 1825.198 C 4833.704 1875.198 4801.704 1949.198 4722.704 1965.198 L 4692.704 1971.198 L 4723.704 1957.198 Z" style=""/>
    <path d="M 4862.704 1775.198 L 4862.704 1580.198 L 4889.704 1580.198 C 4914.704 1580.198 4915.704 1582.198 4906.704 1609.198 C 4900.704 1626.198 4897.704 1708.198 4899.704 1804.198 C 4902.704 1965.198 4902.704 1970.198 4882.704 1970.198 C 4863.704 1970.198 4862.704 1964.198 4862.704 1775.198 Z" style=""/>
    <path d="M 5082.704 1775.198 L 5082.704 1580.198 L 5107.704 1580.198 L 5132.704 1580.198 L 5129.704 1775.198 C 5126.704 1969.198 5126.704 1970.198 5104.704 1970.198 C 5082.704 1970.198 5082.704 1969.198 5082.704 1775.198 Z" style=""/>
    <path d="M 2012.704 1928.198 C 1990.704 1902.198 1986.704 1889.198 1991.704 1862.198 C 1998.704 1815.198 2016.704 1798.198 2104.704 1755.198 C 2162.704 1726.198 2182.704 1710.198 2195.704 1683.198 C 2210.704 1651.198 2210.704 1646.198 2194.704 1617.198 L 2176.704 1585.198 L 2199.704 1608.198 C 2228.704 1636.198 2231.704 1708.198 2205.704 1737.198 C 2195.704 1748.198 2153.704 1773.198 2111.704 1794.198 C 2053.704 1824.198 2032.704 1840.198 2019.704 1866.198 C 2004.704 1899.198 2004.704 1901.198 2025.704 1930.198 C 2055.704 1970.198 2046.704 1968.198 2012.704 1928.198 Z" style=""/>
    <path d="M 2614.704 1901.198 C 2574.704 1857.198 2562.704 1812.198 2570.704 1744.198 C 2580.704 1649.198 2663.704 1579.198 2763.704 1581.198 L 2812.704 1582.198 L 2770.704 1590.198 C 2747.704 1595.198 2718.704 1604.198 2705.704 1611.198 C 2603.704 1663.198 2568.704 1805.198 2632.704 1902.198 C 2664.704 1951.198 2658.704 1950.198 2614.704 1901.198 Z" style=""/>
    <path d="M 4110.704 1908.198 C 4070.704 1866.198 4057.704 1832.198 4057.704 1766.198 C 4057.704 1670.198 4126.704 1595.198 4225.704 1584.198 L 4262.704 1580.198 L 4229.704 1589.198 C 4210.704 1594.198 4177.704 1615.198 4156.704 1636.198 C 4083.704 1708.198 4068.704 1825.198 4122.704 1904.198 C 4152.704 1948.198 4150.704 1949.198 4110.704 1908.198 Z" style=""/>
    <path d="M 3797.704 1792.198 C 3797.704 1788.198 3816.704 1753.198 3838.704 1715.198 C 3861.704 1676.198 3886.704 1630.198 3893.704 1613.198 C 3904.704 1588.198 3913.704 1580.198 3933.704 1580.198 C 3947.704 1580.198 3957.704 1583.198 3955.704 1588.198 C 3954.704 1592.198 3925.704 1641.198 3892.704 1697.198 C 3852.704 1765.198 3826.704 1800.198 3815.704 1800.198 C 3805.704 1800.198 3797.704 1797.198 3797.704 1792.198 Z" style=""/>
    <path d="M 2882.704 1736.198 C 2906.704 1700.198 2887.704 1636.198 2844.704 1610.198 C 2826.704 1599.198 2818.704 1590.198 2824.704 1590.198 C 2852.704 1590.198 2915.704 1660.198 2926.704 1705.198 C 2932.704 1729.198 2937.704 1751.198 2937.704 1754.198 C 2937.704 1757.198 2921.704 1760.198 2902.704 1760.198 C 2867.704 1760.198 2867.704 1760.198 2882.704 1736.198 Z" style=""/>
    <path d="M 1965.704 1687.198 C 1961.704 1667.198 1966.704 1653.198 1986.704 1634.198 C 2007.704 1612.198 2064.704 1580.198 2080.704 1580.198 C 2082.704 1580.198 2063.704 1601.198 2038.704 1628.198 C 2013.704 1654.198 1987.704 1684.198 1981.704 1695.198 C 1971.704 1713.198 1970.704 1713.198 1965.704 1687.198 Z" style=""/>
    <path d="M 2259.704 1605.198 C 2249.704 1584.198 2250.704 1580.198 2262.704 1580.198 C 2271.704 1580.198 2277.704 1590.198 2277.704 1605.198 C 2277.704 1619.198 2275.704 1630.198 2274.704 1630.198 C 2272.704 1630.198 2265.704 1619.198 2259.704 1605.198 Z" style=""/>
    <path d="M 3374.704 1605.198 C 3357.704 1581.198 3357.704 1580.198 3374.704 1580.198 C 3386.704 1580.198 3392.704 1588.198 3393.704 1605.198 C 3395.704 1635.198 3396.704 1635.198 3374.704 1605.198 Z" style=""/>
  </g>
</svg>