<?xml version="1.0" encoding="UTF-8" standalone="no"?>
<!DOCTYPE svg PUBLIC "-//W3C//DTD SVG 20010904//EN"
              "http://www.w3.org/TR/2001/REC-SVG-20010904/DTD/svg10.dtd">

<svg xmlns="http://www.w3.org/2000/svg"
     width="1.66667in" height="1.23333in"
     viewBox="0 0 150 111">
  <path id="Seleção"
        fill="none" stroke="black" stroke-width="1"
        d="M 71.00,17.00
           C 66.54,12.31 68.14,6.30 74.00,8.00
             70.43,11.39 69.87,12.13 71.00,17.00 Z
           M 75.00,7.00
           C 77.36,8.30 77.96,8.21 78.00,11.00
             78.00,11.00 75.00,7.00 75.00,7.00 Z
           M 78.00,13.00
           C 78.00,13.00 76.00,17.00 76.00,17.00
             76.00,17.00 78.00,13.00 78.00,13.00 Z
           M 82.00,21.00
           C 82.00,21.00 86.00,23.00 86.00,23.00
             86.00,23.00 82.00,21.00 82.00,21.00 Z
           M 66.00,22.00
           C 66.00,22.00 67.00,22.00 67.00,22.00
             67.00,22.00 66.00,23.00 66.00,23.00
             66.00,23.00 66.00,22.00 66.00,22.00 Z
           M 90.00,23.00
           C 90.00,23.00 91.00,23.00 91.00,23.00
             91.00,23.00 90.00,24.00 90.00,24.00
             90.00,24.00 90.00,23.00 90.00,23.00 Z
           M 58.00,26.00
           C 58.00,26.00 56.00,29.00 56.00,29.00
             56.00,29.00 56.00,28.00 56.00,28.00
             56.00,28.00 58.00,26.00 58.00,26.00 Z
           M 97.00,27.00
           C 97.00,27.00 105.00,35.00 105.00,35.00
             105.00,35.00 97.00,27.00 97.00,27.00 Z
           M 63.00,31.00
           C 64.13,28.29 64.13,28.55 67.00,28.00
             67.00,28.00 63.00,31.00 63.00,31.00 Z
           M 53.00,30.00
           C 53.00,30.00 54.00,30.00 54.00,30.00
             54.00,30.00 53.00,31.00 53.00,31.00
             53.00,31.00 53.00,30.00 53.00,30.00 Z
           M 67.00,36.00
           C 67.00,36.00 73.00,35.00 73.00,35.00
             73.00,35.00 67.00,36.00 67.00,36.00 Z
           M 93.00,34.00
           C 93.00,34.00 93.00,37.00 93.00,37.00
             93.00,37.00 93.00,34.00 93.00,34.00 Z
           M 85.00,35.00
           C 85.00,35.00 86.00,35.00 86.00,35.00
             86.00,35.00 85.00,36.00 85.00,36.00
             85.00,36.00 85.00,35.00 85.00,35.00 Z
           M 87.00,36.00
           C 87.00,36.00 88.00,36.00 88.00,36.00
             88.00,36.00 87.00,37.00 87.00,37.00
             87.00,37.00 87.00,36.00 87.00,36.00 Z
           M 48.00,37.00
           C 48.00,37.00 49.00,37.00 49.00,37.00
             49.00,37.00 48.00,38.00 48.00,38.00
             48.00,38.00 48.00,37.00 48.00,37.00 Z
           M 65.00,37.00
           C 65.00,37.00 61.00,42.00 61.00,42.00
             61.00,42.00 65.00,37.00 65.00,37.00 Z
           M 77.00,37.00
           C 77.00,37.00 77.00,42.00 77.00,42.00
             77.00,42.00 77.00,37.00 77.00,37.00 Z
           M 89.00,37.00
           C 89.00,37.00 93.00,41.00 93.00,41.00
             93.00,41.00 89.00,37.00 89.00,37.00 Z
           M 106.00,37.00
           C 106.00,37.00 107.00,37.00 107.00,37.00
             107.00,37.00 106.00,38.00 106.00,38.00
             106.00,38.00 106.00,37.00 106.00,37.00 Z
           M 47.00,39.00
           C 47.00,39.00 48.00,39.00 48.00,39.00
             48.00,39.00 47.00,40.00 47.00,40.00
             47.00,40.00 47.00,39.00 47.00,39.00 Z
           M 107.00,39.00
           C 107.00,39.00 108.00,39.00 108.00,39.00
             108.00,39.00 107.00,40.00 107.00,40.00
             107.00,40.00 107.00,39.00 107.00,39.00 Z
           M 72.00,40.00
           C 72.00,40.00 73.00,40.00 73.00,40.00
             73.00,40.00 72.00,41.00 72.00,41.00
             72.00,41.00 72.00,40.00 72.00,40.00 Z
           M 46.00,41.00
           C 46.00,41.00 47.00,50.00 47.00,50.00
             41.60,48.04 43.87,44.92 46.00,41.00 Z
           M 93.00,42.00
           C 93.00,42.00 95.00,47.00 95.00,47.00
             95.00,47.00 93.00,42.00 93.00,42.00 Z
           M 108.00,42.00
           C 108.00,42.00 109.00,42.00 109.00,42.00
             109.00,42.00 108.00,43.00 108.00,43.00
             108.00,43.00 108.00,42.00 108.00,42.00 Z
           M 60.00,43.00
           C 60.00,43.00 61.00,43.00 61.00,43.00
             61.00,43.00 60.00,44.00 60.00,44.00
             60.00,44.00 60.00,43.00 60.00,43.00 Z
           M 48.00,44.00
           C 48.00,44.00 49.00,44.00 49.00,44.00
             49.00,44.00 48.00,45.00 48.00,45.00
             48.00,45.00 48.00,44.00 48.00,44.00 Z
           M 72.00,45.00
           C 72.00,45.00 76.00,46.00 76.00,46.00
             76.00,46.00 72.00,45.00 72.00,45.00 Z
           M 80.00,44.00
           C 80.00,44.00 85.00,48.00 85.00,48.00
             85.00,48.00 80.00,44.00 80.00,44.00 Z
           M 102.00,47.00
           C 102.00,47.00 108.00,45.00 108.00,45.00
             108.00,45.00 107.00,47.00 107.00,47.00
             107.00,47.00 110.00,46.00 110.00,46.00
             107.51,50.22 105.09,51.34 102.00,47.00 Z
           M 66.00,47.00
           C 66.00,47.00 67.00,47.00 67.00,47.00
             67.00,47.00 66.00,48.00 66.00,48.00
             66.00,48.00 66.00,47.00 66.00,47.00 Z
           M 70.00,47.00
           C 70.00,47.00 70.00,51.00 70.00,51.00
             70.00,51.00 70.00,47.00 70.00,47.00 Z
           M 48.00,48.00
           C 48.00,48.00 49.00,48.00 49.00,48.00
             49.00,48.00 48.00,49.00 48.00,49.00
             48.00,49.00 48.00,48.00 48.00,48.00 Z
           M 58.00,48.00
           C 58.00,48.00 58.00,55.00 58.00,55.00
             58.00,55.00 58.00,48.00 58.00,48.00 Z
           M 85.00,49.00
           C 86.53,53.01 85.84,54.92 83.00,58.00
             83.00,58.00 85.00,49.00 85.00,49.00 Z
           M 96.00,50.00
           C 96.00,50.00 97.00,50.00 97.00,50.00
             97.00,50.00 96.00,51.00 96.00,51.00
             96.00,51.00 96.00,50.00 96.00,50.00 Z
           M 62.00,51.00
           C 62.00,51.00 67.00,52.00 67.00,52.00
             67.00,52.00 62.00,51.00 62.00,51.00 Z
           M 88.00,51.00
           C 88.00,51.00 93.00,52.00 93.00,52.00
             93.00,52.00 88.00,51.00 88.00,51.00 Z
           M 65.00,56.00
           C 65.00,56.00 66.00,56.00 66.00,56.00
             66.00,56.00 65.00,57.00 65.00,57.00
             65.00,57.00 65.00,56.00 65.00,56.00 Z
           M 89.00,56.00
           C 89.00,56.00 90.00,56.00 90.00,56.00
             90.00,56.00 89.00,57.00 89.00,57.00
             89.00,57.00 89.00,56.00 89.00,56.00 Z
           M 59.00,57.00
           C 59.00,57.00 60.00,57.00 60.00,57.00
             60.00,57.00 59.00,58.00 59.00,58.00
             59.00,58.00 59.00,57.00 59.00,57.00 Z
           M 73.00,58.00
           C 73.00,58.00 74.00,58.00 74.00,58.00
             74.00,58.00 73.00,59.00 73.00,59.00
             73.00,59.00 73.00,58.00 73.00,58.00 Z
           M 81.00,58.00
           C 81.00,58.00 82.00,58.00 82.00,58.00
             82.00,58.00 81.00,59.00 81.00,59.00
             81.00,59.00 81.00,58.00 81.00,58.00 Z
           M 60.00,59.00
           C 60.00,59.00 61.00,59.00 61.00,59.00
             61.00,59.00 60.00,60.00 60.00,60.00
             60.00,60.00 60.00,59.00 60.00,59.00 Z
           M 69.00,59.00
           C 69.00,59.00 67.00,62.00 67.00,62.00
             67.00,62.00 67.00,61.00 67.00,61.00
             67.00,61.00 69.00,59.00 69.00,59.00 Z
           M 75.00,59.00
           C 75.00,59.00 76.00,59.00 76.00,59.00
             76.00,59.00 75.00,60.00 75.00,60.00
             75.00,60.00 75.00,59.00 75.00,59.00 Z
           M 85.00,59.00
           C 85.00,59.00 88.00,62.00 88.00,62.00
             88.00,62.00 85.00,59.00 85.00,59.00 Z
           M 94.00,59.00
           C 94.00,59.00 95.00,59.00 95.00,59.00
             95.00,59.00 94.00,60.00 94.00,60.00
             94.00,60.00 94.00,59.00 94.00,59.00 Z
           M 46.00,61.00
           C 46.00,61.00 51.72,69.00 51.72,69.00
             51.72,69.00 56.00,75.00 56.00,75.00
             56.00,75.00 49.00,67.00 49.00,67.00
             49.00,67.00 44.00,66.00 44.00,66.00
             44.00,66.00 46.00,61.00 46.00,61.00 Z
           M 93.00,61.00
           C 93.00,61.00 88.00,67.00 88.00,67.00
             88.00,67.00 93.00,61.00 93.00,61.00 Z
           M 108.00,61.00
           C 108.00,61.00 109.00,66.00 109.00,66.00
             104.94,62.45 103.48,64.88 100.00,68.00
             100.00,68.00 99.00,65.00 99.00,65.00
             99.00,65.00 101.00,66.00 101.00,66.00
             101.00,66.00 102.00,65.00 102.00,65.00
             102.89,61.65 104.87,62.01 108.00,61.00 Z
           M 103.00,63.00
           C 103.00,63.00 102.00,63.00 102.00,63.00
             102.00,63.00 103.00,64.00 103.00,64.00
             103.00,64.00 103.00,63.00 103.00,63.00 Z
           M 68.00,67.00
           C 68.00,67.00 69.00,67.00 69.00,67.00
             69.00,67.00 68.00,68.00 68.00,68.00
             68.00,68.00 68.00,67.00 68.00,67.00 Z
           M 83.00,68.00
           C 83.00,68.00 87.00,67.00 87.00,67.00
             87.00,67.00 88.00,71.00 88.00,71.00
             88.00,71.00 87.00,72.00 87.00,72.00
             87.00,72.00 85.00,72.00 85.00,72.00
             85.00,72.00 83.00,68.00 83.00,68.00 Z
           M 70.00,68.00
           C 70.00,68.00 71.00,68.00 71.00,68.00
             71.00,68.00 70.00,69.00 70.00,69.00
             70.00,69.00 70.00,68.00 70.00,68.00 Z
           M 99.00,69.00
           C 99.00,69.00 100.00,69.00 100.00,69.00
             100.00,69.00 99.00,70.00 99.00,70.00
             99.00,70.00 99.00,69.00 99.00,69.00 Z
           M 100.00,71.00
           C 100.00,71.00 107.00,73.00 107.00,73.00
             107.00,73.00 98.00,76.00 98.00,76.00
             98.00,76.00 100.00,71.00 100.00,71.00 Z
           M 69.00,72.00
           C 69.00,72.00 72.00,72.00 72.00,72.00
             72.00,72.00 72.00,76.00 72.00,76.00
             72.00,76.00 69.00,76.00 69.00,76.00
             69.00,76.00 69.00,72.00 69.00,72.00 Z
           M 61.00,78.00
           C 61.00,78.00 62.00,78.00 62.00,78.00
             62.00,78.00 61.00,79.00 61.00,79.00
             61.00,79.00 61.00,78.00 61.00,78.00 Z
           M 93.00,78.00
           C 93.00,78.00 94.00,78.00 94.00,78.00
             94.00,78.00 93.00,79.00 93.00,79.00
             93.00,79.00 93.00,78.00 93.00,78.00 Z
           M 91.00,79.00
           C 91.00,79.00 92.00,79.00 92.00,79.00
             92.00,79.00 91.00,80.00 91.00,80.00
             91.00,80.00 91.00,79.00 91.00,79.00 Z
           M 65.00,80.00
           C 65.00,80.00 66.00,80.00 66.00,80.00
             66.00,80.00 65.00,81.00 65.00,81.00
             65.00,81.00 65.00,80.00 65.00,80.00 Z
           M 73.00,82.00
           C 73.00,82.00 74.00,82.00 74.00,82.00
             74.00,82.00 73.00,83.00 73.00,83.00
             73.00,83.00 73.00,82.00 73.00,82.00 Z
           M 26.00,89.00
           C 26.00,89.00 33.00,105.00 33.00,105.00
             28.37,102.10 26.80,94.19 26.00,89.00 Z
           M 43.00,89.00
           C 43.00,89.00 48.00,93.00 48.00,93.00
             48.00,93.00 43.00,89.00 43.00,89.00 Z
           M 51.00,89.00
           C 51.00,89.00 53.00,89.00 53.00,89.00
             53.00,89.00 53.00,105.00 53.00,105.00
             53.00,105.00 51.00,105.00 51.00,105.00
             51.00,105.00 51.00,89.00 51.00,89.00 Z
           M 60.00,89.00
           C 63.19,93.33 62.00,99.83 62.00,105.00
             62.00,105.00 60.00,105.00 60.00,105.00
             60.00,105.00 60.00,89.00 60.00,89.00 Z
           M 74.00,89.00
           C 78.10,93.15 80.11,99.31 81.00,105.00
             77.48,102.30 75.18,93.39 74.00,89.00 Z
           M 83.00,89.00
           C 86.19,93.33 85.00,99.83 85.00,105.00
             85.00,105.00 83.00,105.00 83.00,105.00
             83.00,105.00 83.00,89.00 83.00,89.00 Z
           M 90.00,89.00
           C 93.91,91.78 93.37,92.95 90.00,96.00
             90.00,96.00 90.00,89.00 90.00,89.00 Z
           M 96.00,89.00
           C 96.00,89.00 98.00,89.00 98.00,89.00
             98.00,89.00 98.00,105.00 98.00,105.00
             98.00,105.00 96.00,105.00 96.00,105.00
             96.00,105.00 96.00,89.00 96.00,89.00 Z
           M 108.00,89.00
           C 115.19,91.48 117.34,97.20 112.00,103.00
             114.75,95.46 113.16,94.66 108.00,89.00 Z
           M 121.00,89.00
           C 124.19,93.33 123.00,99.83 123.00,105.00
             123.00,105.00 121.00,105.00 121.00,105.00
             121.00,105.00 121.00,89.00 121.00,89.00 Z
           M 128.00,89.00
           C 130.81,91.89 131.70,93.48 128.00,96.00
             128.00,96.00 132.00,105.00 132.00,105.00
             128.37,102.71 127.26,99.99 126.00,96.00
             129.03,93.18 129.05,93.00 128.00,89.00 Z
           M 134.00,89.00
           C 134.00,89.00 136.00,105.00 136.00,105.00
             136.00,105.00 134.00,105.00 134.00,105.00
             134.00,105.00 134.00,89.00 134.00,89.00 Z
           M 144.00,89.00
           C 144.00,89.00 146.00,105.00 146.00,105.00
             146.00,105.00 143.00,105.00 143.00,105.00
             143.00,105.00 144.00,89.00 144.00,89.00 Z
           M 9.00,91.00
           C 15.02,97.88 19.67,97.20 18.00,103.00
             14.14,95.70 10.38,99.34 9.00,91.00 Z
           M 36.00,91.00
           C 36.66,97.92 33.32,97.88 42.00,105.00
             33.69,103.21 32.72,98.09 36.00,91.00 Z
           M 101.00,91.00
           C 101.35,98.56 98.57,95.02 105.00,105.00
             98.42,101.25 97.94,97.62 101.00,91.00 Z
           M 88.00,96.00
           C 88.00,96.00 94.00,105.00 94.00,105.00
             90.14,102.68 89.23,100.20 88.00,96.00 Z
           M 48.00,98.00
           C 48.00,98.00 50.00,98.00 50.00,98.00
             50.00,98.00 47.00,103.00 47.00,103.00
             47.00,103.00 48.00,98.00 48.00,98.00 Z
           M 8.00,100.00
           C 8.00,100.00 12.00,105.00 12.00,105.00
             12.00,105.00 8.00,100.00 8.00,100.00 Z
           M 20.00,104.00
           C 20.00,104.00 21.00,104.00 21.00,104.00
             21.00,104.00 20.00,105.00 20.00,105.00
             20.00,105.00 20.00,104.00 20.00,104.00 Z
           M 69.00,104.00
           C 69.00,104.00 70.00,104.00 70.00,104.00
             70.00,104.00 69.00,105.00 69.00,105.00
             69.00,105.00 69.00,104.00 69.00,104.00 Z" />
</svg>
